# xmcd CD database file
#
# Track frame offsets:
#	150
#	20828
#	62192
#	109555
#	141078
#	167284
#	199590
#	217361
#	240728
#
# Disc length: 3539 seconds
#
# Revision: 0
# Processed by: cddbd v1.5.2PL0 Copyright (c) Steve Scherf et al.
# Submitted via: CDex 1.40Release
#
DISCID=810dd109
DTITLE=Robben Ford - House Of Blues
DYEAR=1900
DGENRE=Blues
TTITLE0=Just Like It Is
TTITLE1=House Of Blues
TTITLE2=Tiger Walk
TTITLE3=Ghosts
TTITLE4=Top Of The Hill
TTITLE5=Got me knocking
TTITLE6=The Miller's Son
TTITLE7=Chevrolet
TTITLE8=Red Lady W Cello
EXTD=ID3G: 0
EXTT0=
EXTT1=
EXTT2=
EXTT3=
EXTT4=
EXTT5=
EXTT6=
EXTT7=
EXTT8=
PLAYORDER=
